<svg width="874" height="1001" viewBox="0 0 874 1001" fill="none" xmlns="http://www.w3.org/2000/svg">
<path d="M751.659 796.874C751.535 797.509 751.182 798.139 750.883 798.411C750.72 798.546 750.425 798.039 750.279 797.651C750.092 797.152 749.869 796.49 749.895 795.887C750 793.598 750.2 791.302 750.373 789.005C749.645 788.396 749.019 788.937 748.504 790.67C747.77 793.286 748.106 797.196 746.377 798.697C745.783 798.583 745.091 798.622 744.483 798.278C744.215 798.136 744.066 797.17 743.712 796.107C744.243 788.503 744.895 780.412 745.357 772.333C745.38 771.394 744.673 770.478 744.349 769.633C743.285 771.94 742.162 774.175 741.065 776.291C740.81 779.697 740.587 782.931 740.361 786.071C740.939 787.918 741.495 789.709 742.073 791.556C741.838 794.775 741.618 797.983 741.41 800.842C741.999 802.944 742.526 804.76 743.065 806.711C742.711 809.908 742.387 813.08 742.113 815.558C742.917 818.524 743.564 820.967 744.168 823.179L746.252 823.345C747.195 821.767 748.057 820.304 748.917 818.867C749.67 821.44 750.376 823.834 751.093 826.243C750.504 831.571 750.007 836.92 749.337 842.241L747.047 858.197L744.784 874.155L741.962 890.041C742.332 891.938 742.678 893.807 743.044 895.731C742.185 900.58 744.607 886.96 743.762 891.676C744.135 893.667 744.481 895.536 744.809 897.322C744.439 899.08 744.102 900.666 743.818 902.014C742.793 903.853 741.838 905.538 741 907.03C739.88 913.135 738.445 918.799 737.369 924.504C737.1 925.84 737.392 927.221 737.429 928.594C738.039 927.46 738.825 926.448 739.21 925.162C740.125 922.131 740.288 918.704 741.627 915.854C741.927 915.22 742.33 914.862 742.632 914.443L744.604 914.774C745.063 917.324 745.516 919.805 745.943 922.285C745.644 923.887 745.203 925.558 745.062 927.079C744.895 928.96 745.252 929.875 745.848 929.479C746.198 929.239 746.705 928.553 746.897 927.91C747.341 926.333 747.622 924.649 747.977 923.025C750.874 919.735 750.889 919.722 751.938 924.012L751.027 928.71C751.302 930.734 751.547 932.661 751.759 934.156C751.129 937.17 750.517 940.144 749.908 943.092C749.598 944.559 749.299 946.04 748.989 947.507L747.927 951.87C746.519 957.657 745.143 963.393 743.756 969.114C743.608 969.72 743.804 970.623 744.027 970.923C744.158 971.081 744.763 970.484 744.982 969.964C747.803 963.228 748.494 955.516 751.1 948.643C751.892 947.577 752.565 946.488 753.401 945.265C755.313 939.061 756.189 932.359 757.846 925.907C758.178 924.616 759.073 923.586 759.711 922.454C760.711 922.426 761.573 923.529 763.031 920.461C763.592 917.697 764.409 914.457 764.949 911.154C765.99 909.302 766.962 907.579 767.987 905.739C768.283 904.284 768.549 902.612 768.954 901.019C769.126 900.32 769.535 899.667 769.867 899.224C770.842 897.958 772.155 898.156 772.634 899.309C773.124 900.477 772.947 901.834 772.599 903.768C770.753 914.733 768.203 925.603 765.941 936.428C766.213 938.357 766.476 940.246 766.727 942.12C765.357 944.511 763.746 945.793 763.008 949.913C762.236 953.601 760.129 954.132 759.617 955.717C757.816 961.15 757.696 965.897 755.198 968.493C755.121 967.855 754.886 967.299 754.953 966.566C755.79 958.637 755.837 958.574 754.589 953.287C754.056 951.041 754.972 952.754 753.347 955.016C751.728 961.485 750.083 968.072 748.439 974.66C748.291 975.266 748.523 975.97 748.586 976.62C750.005 980.482 754.527 975.051 754.99 981.954C754.602 983.509 758.848 966.325 758.532 967.966C758.404 968.628 758.548 969.526 758.771 969.826C759.157 970.354 760.011 969.575 760.562 967.765C761.524 964.549 757.515 980.086 758.174 977.41C759.574 975.238 760.665 973.537 761.412 972.388C762.421 968.383 763.237 965.142 763.98 962.205C763.122 955.096 763.199 955.008 766.196 949.966C766.835 954.424 767.435 958.866 767.967 963.436C768.024 963.898 767.586 965.059 767.37 965.915C768.43 966.806 770.388 964.946 770.671 969.456C769.256 975.055 767.546 981.624 765.993 988.232C765.686 989.551 770.472 972.84 770.84 973.044C772.031 973.73 770.383 973.76 772.201 971.218C773.598 966.021 770.287 979.504 771.634 974.518C772.787 972.863 773.552 971.796 774.32 970.701C774.578 969.956 774.847 969.225 775.12 968.467C777.074 962.495 777.082 962.415 779.479 963.533C780.133 968.221 780.76 972.665 781.381 977.041C780.902 978.938 780.419 980.62 780.1 982.287C779.97 982.976 780.113 983.874 780.321 984.186C780.693 984.726 781.476 983.982 782.125 982.139C783.463 978.322 783.611 973.577 785.879 970.493C786.597 970.456 787.318 970.271 787.933 970.441C788.847 970.702 790.046 970.099 790.389 972.236C790.721 974.359 789.535 977.032 789.338 979.301C789.283 980.049 789.476 980.615 789.551 981.28C790.185 980.295 791.117 979.429 791.442 978.313C792.83 973.317 794.037 968.253 795.268 963.339C794.087 960.491 795.111 956.232 795.478 952.176C795.681 950.217 795.105 949.58 794.206 950.033C793.665 952.489 793.189 954.964 792.571 957.387C791.501 959.505 790.507 960.448 789.539 959.94C788.39 959.365 788.276 958.321 788.923 955.148C789.399 952.431 790.214 950.669 791.371 949.471L794.194 950.018C795.132 946.895 795.064 943.006 796.798 940.726C799.13 938.17 800.488 943.438 803.048 937.837C804.159 932.658 805.256 927.492 806.38 922.327C807.438 917.144 808.268 911.956 809.229 906.806C810.269 904.953 811.274 903.179 812.228 901.495C816.093 880.438 815.977 879.3 819.014 858.297C819.672 857.463 820.401 855.989 820.971 855.954C822.042 855.891 822.965 855.468 823.907 852.922C824.737 847.734 825.183 842.476 825.776 837.242C826.341 832.006 826.907 826.771 827.452 821.6C828.341 819.656 829.158 817.866 829.938 816.182C829.437 814.005 829.062 812.04 828.546 809.997C829.055 804.663 829.538 799.447 830.032 794.246C830.106 793.58 830.56 793.012 830.891 792.326C831.478 794.093 832.079 795.847 832.674 797.655C833.318 797.679 834.001 797.72 834.645 797.744C835.437 800.334 836.205 802.894 836.973 805.455C836.903 807.182 836.848 808.898 836.773 810.921C837.222 812.704 837.651 814.673 838.137 816.74C837.322 818.503 836.445 820.341 835.595 822.182C835.218 825.712 834.838 829.27 834.475 832.667C834.94 834.68 835.39 836.583 835.81 838.391C834.897 840.428 834.029 842.307 833.12 844.317C832.784 847.838 832.279 851.305 831.819 854.493C828.343 861.069 828.349 861.137 829.06 867.495L831.07 867.723C833.072 865.826 832.571 859.148 834.683 857.476C835.27 860.089 835.857 862.702 836.471 865.438C835.546 867.219 834.604 868.918 833.733 870.824C833.498 871.356 833.461 872.549 833.337 873.426L836.371 873.775C836.952 876.441 837.548 879.096 838.239 882.228C837.711 886.15 837.241 888.813 836.866 890.866C836.491 892.919 836.237 894.363 835.995 895.822C835.483 898.738 834.966 901.706 833.578 909.752C833.386 910.879 833.857 912.838 834.308 913.143C835.202 913.711 836.253 913.593 836.424 916.429C835.961 919.039 835.479 921.688 834.994 924.364C834.483 927.037 833.862 929.729 833.294 932.425C832.251 934.183 831.175 935.992 830.019 937.915C829.288 941.351 828.52 944.891 827.807 948.166C826.63 950.155 825.566 951.979 824.555 953.685C824.065 956.777 823.195 959.893 822.429 962.922C821.609 965.947 821.012 968.91 821.278 971.739L822.169 972.213C823.44 972.906 823.872 974.365 823.339 976.499C821.789 982.718 820.162 988.904 818.706 995.117C818.372 996.555 818.626 998.04 818.624 999.518C819.28 999.677 819.924 999.823 820.569 999.968C821.746 1002.36 823.614 988.641 825.156 990.659C826.718 988.351 828.296 986.031 829.891 983.672C829.477 985.346 826.672 996.45 826.192 998.347C827.713 996.17 829.294 993.944 830.96 991.551C833.967 991.293 833.896 992.053 836.439 983.441C837.663 981.389 838.772 979.528 839.7 977.963C843.123 965.04 845.384 953.248 847.821 942.182C848.986 936.644 850.213 931.273 851.23 925.979C852.181 920.667 853.124 915.434 854.055 910.187C855.886 899.717 857.914 889.304 859.362 878.159C860.153 872.591 860.961 866.864 861.823 860.9C862.248 857.91 862.679 854.867 863.119 851.745C863.452 848.614 863.805 845.417 864.168 842.14C864.256 841.341 864.131 840.525 864.112 839.717C862.453 832.423 862.506 831.943 866.026 824.242C866.361 821.084 866.697 817.926 867.036 814.742C867.36 811.569 867.526 808.358 867.773 805.152C868.225 798.752 868.694 792.313 869.149 785.886C870.011 783.818 870.823 781.84 871.685 779.772C871.779 778.436 871.876 777.073 871.972 775.71C872.016 774.343 872.086 772.978 872.144 771.599C872.246 768.852 872.35 766.079 872.44 763.318C871.827 761.307 871.211 759.323 870.681 757.534C870.89 751.746 871.081 746.239 871.284 740.866C871.85 739.407 872.46 738.152 872.884 736.761C873.047 736.264 873.067 735.472 873.179 734.823C870.638 727.338 870.637 726.975 873.288 719.097C872.722 717.264 872.121 715.389 871.448 713.186C871.446 710.646 871.441 708.012 871.447 705.271C871.454 702.53 871.458 699.695 871.325 696.756C871.854 695.011 872.47 692.977 873.118 690.892C871.891 642.891 867.348 594.894 859.383 547.62C858.36 545.778 857.37 544.006 856.451 542.32C856.758 540.034 857.032 537.919 857.242 536.39C845.619 470.523 826.775 406.217 801.922 344.456C795.311 329.176 789.094 313.739 781.702 298.812L776.346 287.529L773.667 281.9L770.789 276.363L759.205 254.251C757.338 250.541 755.186 246.97 753.12 243.352L746.892 232.523L740.649 221.706C738.554 218.113 736.256 214.638 734.06 211.104L720.708 189.992L706.528 169.42L702.786 166.824C699.306 162.825 696.227 158.253 692.932 153.932C690.147 150.23 687.348 146.541 684.563 142.839C682.887 140.69 681.315 138.455 679.684 136.269C678.067 134.071 676.225 132.083 674.33 130.213C673.076 129.481 671.862 128.766 670.659 128.066C645.74 97.4874 623.69 75.213 610.002 60.3097C609.428 59.0411 608.886 57.7215 608.191 56.3358C606.32 55.4613 604.434 54.599 602.486 53.6914C597.775 49.2582 593.078 44.8127 588.354 40.3651C585.984 38.1608 583.675 35.8807 581.23 33.7377L573.863 27.3597L559.126 14.6302C557.882 13.5771 556.682 12.4871 555.419 11.4729L551.602 8.45461L543.968 2.41814C542.818 0.633469 541.689 -1.09583 540.639 -2.69775C538.478 -3.50144 536.459 -4.25348 534.27 -5.05925C532.099 -6.75054 529.972 -8.47863 527.807 -10.1023C525.624 -11.687 523.452 -13.2574 521.355 -14.7681C519.642 -15.2404 518.297 -15.6297 516.937 -16.0067C510.391 -20.5457 504.086 -24.9446 498.228 -29.0122C492.256 -32.8873 486.761 -36.4557 481.982 -39.5505C477.248 -42.6821 473.23 -45.3402 470.191 -47.3558C467.117 -49.2937 465.059 -50.6669 464.281 -51.3067C463.404 -52.3977 462.539 -53.4744 461.464 -54.8366C458.607 -56.5421 455.485 -58.4166 451.719 -60.6783C450.208 -61.027 448.118 -61.5025 445.74 -62.0547C437.831 -66.5813 429.682 -70.8851 421.578 -75.3466L415.46 -78.6421L409.227 -81.7453L396.73 -87.9271C394.539 -88.2224 392.426 -88.4848 390.38 -88.7552C388.913 -90.2292 387.409 -91.7464 386.114 -92.9514C380.003 -95.6955 373.981 -98.3921 368.047 -101.041C365.066 -102.354 362.144 -103.715 359.207 -104.943C356.241 -106.147 353.313 -107.334 350.397 -108.507C348.022 -108.723 346.018 -108.883 344.056 -109.052L340.675 -112.116C339.965 -112.522 339.306 -113.018 338.558 -113.32C332.969 -115.673 327.247 -117.674 321.546 -119.74L304.437 -125.886C303.683 -126.134 302.849 -126.147 302.053 -126.264C300.631 -126.203 299.212 -126.168 297.155 -126.09C291.612 -127.875 285.483 -129.854 279.367 -131.819C273.155 -133.779 266.881 -135.541 260.617 -137.263C254.506 -138.919 248.449 -141.296 242.33 -141.783C240.79 -141.623 239.386 -141.48 237.845 -141.32C211.893 -148.05 185.532 -153.279 159.047 -157.511L149.11 -159.055C145.8 -159.588 142.487 -160.093 139.147 -160.48L119.188 -163.037C105.853 -164.435 92.5207 -165.859 79.1412 -166.736C77.0044 -166.181 74.9508 -165.646 72.9119 -165.123C71.0803 -165.255 69.2516 -165.414 67.5743 -165.481C65.5344 -166.288 63.6131 -167.073 61.974 -167.727L46.3209 -168.517L30.6561 -168.958L22.8223 -169.165L14.9975 -169.21C9.77009 -169.223 4.56343 -169.302 -0.643158 -169.26C-21.4962 -169.093 -42.3279 -168.266 -63.1235 -166.912C-104.715 -163.962 -146.129 -158.714 -187.422 -150.661L-194.913 -146.165C-193.86 -140.209 -192.795 -134.238 -191.731 -128.268L-185.921 -127.187C-185.584 -125.239 -185.238 -123.25 -184.93 -121.398C-183.009 -120.976 -181.314 -120.586 -179.643 -120.224C-182.673 -118.334 -182.602 -117.101 -179.432 -116.526C-179.093 -115.934 -178.573 -115.396 -178.468 -114.756C-177.806 -111.115 -177.284 -107.432 -176.58 -103.802C-176.458 -103.201 -175.662 -102.721 -175.181 -102.199L-171.072 -101.455L-170.448 -97.5896C-168.515 -97.1535 -166.687 -96.7525 -164.766 -96.3308L-163.864 -90.4676C-161.729 -89.3033 -157.396 -90.947 -154.944 -90.4561C-152.293 -89.9359 -149.971 -89.4823 -146.074 -90.2335C-145.083 -90.4233 -142.904 -89.9004 -142.805 -89.4492C-142.102 -86.1817 -141.811 -82.8396 -141.411 -79.7574C-137.965 -78.9097 -137.694 -77.625 -140.597 -75.9034C-140.445 -74.7222 -140.293 -73.4201 -140.078 -71.8308C-138.902 -71.4953 -137.203 -71.0107 -135.259 -70.4393C-134.957 -67.9294 -134.619 -65.2554 -134.293 -62.5958C-132.461 -62.1005 -130.721 -61.6261 -128.916 -61.1329C-128.689 -59.1665 -128.453 -57.159 -128.229 -55.1658L-132.901 -52.2727L-132.383 -50.3771C-130.623 -49.8472 -128.966 -49.3525 -127.196 -48.7816C-126.661 -44.1166 -126.111 -39.4638 -125.614 -35.1782C-123.631 -34.3484 -121.146 -33.9086 -121.018 -33.1191C-120.758 -31.5665 -118.481 -31.0762 -115.889 -30.386L-119.876 -27.7205C-118.685 -26.9135 -116.519 -27.2516 -114.298 -27.3435C-112.206 -27.3784 -110.382 -26.8033 -107.31 -26.3167C-104.757 -26.3688 -100.848 -27.1056 -96.9242 -27.4919C-88.1503 -28.4729 -79.3556 -29.2775 -70.5756 -30.0699C-69.9226 -30.1254 -69.2817 -30.4372 -68.614 -30.6259L-65.089 -32.4011C-60.5119 -32.7219 -55.748 -33.1488 -50.5742 -33.3818C-49.143 -32.9185 -47.3882 -32.3353 -45.6186 -31.7644L-40.7195 -33.9005C-38.9083 -33.3397 -37.1535 -32.7565 -35.8292 -32.3017C-11.3079 -33.3456 12.671 -33.3846 35.9827 -32.5093C38.2411 -33.1894 40.0514 -33.7171 41.556 -34.1617C50.3132 -33.7734 50.2865 -33.7755 54.8685 -35.2381C55.3849 -35.3985 56.2873 -35.3939 61.9093 -35.6584C61.6243 -35.6408 66.3721 -34.0937 70.9251 -34.8061L74.688 -36.0518C79.0251 -35.787 83.3565 -35.2271 87.7056 -34.8271C92.0487 -34.3737 96.4126 -33.9859 100.777 -33.4772C105.135 -32.9151 109.493 -32.3531 113.893 -31.8012C116.086 -31.5325 118.292 -31.2493 120.498 -30.9662C122.689 -30.6708 124.883 -30.2811 127.098 -29.9569C128.413 -29.1803 129.981 -28.2492 131.65 -27.2563C136.205 -26.5175 140.934 -25.899 145.592 -25.004L151.115 -26.0826C155.75 -25.2164 160.399 -24.3625 164.769 -23.5442C166.859 -23.9153 168.69 -24.1457 170.444 -24.4091C174.171 -23.2524 178.629 -23.3543 181.145 -21.1249C181.487 -20.0764 179.942 -19.2589 182.255 -17.9997C182.757 -17.7851 183.363 -17.4143 184.022 -17.2812C189.057 -16.2622 193.968 -14.8499 198.956 -13.6465C203.908 -12.3653 208.923 -11.2807 213.831 -9.84177C214.484 -9.65538 215.188 -9.67998 215.96 -9.59165C218.162 -10.0075 220.495 -10.3861 224.408 -8.85169C225.528 -8.01005 226.984 -6.91324 228.579 -5.73814C230.253 -5.88702 232.036 -6.05401 233.903 -6.2413C235.287 -5.8355 236.781 -5.32689 238.2 -4.87795C240.088 -5.00983 241.934 -5.13152 243.673 -5.26175C245.292 -4.78353 246.779 -4.34263 248.071 -3.95757C250.062 -4.05431 251.932 -4.14727 253.598 -4.21621C255.706 -3.53774 257.683 -2.89652 259.53 -2.29259C261.356 -1.62312 263.067 -1.0032 264.661 -0.43279C267.847 0.73465 270.594 1.73267 272.966 2.58003C277.694 4.31358 280.948 5.47303 283.228 6.42056C287.769 8.38111 288.642 9.01501 290.406 10.2439L285.461 10.6026C285.886 11.0261 286.195 11.642 286.736 11.8731C290.964 13.7283 295.184 15.6633 299.499 17.2296C301.714 18.0375 303.212 17.5253 303.33 16.3388C303.41 15.6195 304.38 15.3743 306.158 15.6234C317.357 20.7478 328.94 25.5536 340.297 31.443C341.336 32.6411 342.534 33.9996 343.743 35.3724C347.895 37.4364 352.135 39.4268 356.115 41.7055C358.018 41.9242 359.829 42.1222 361.717 42.3531C365.491 44.414 369.254 46.4604 373.029 48.5213L375.85 50.0628L378.606 51.7066L384.103 55.0064C391.401 59.4574 398.828 63.5828 405.754 68.3402C407.859 68.8034 409.661 69.2022 410.885 69.4743C415.705 72.6799 420.484 75.6538 424.972 78.8196C429.427 82.0364 433.784 85.1649 438.064 88.2603C441.789 94.308 442.121 94.3479 449.078 96.2725C454.954 100.906 461.052 105.718 467.607 110.903C468.273 112.071 469.236 113.599 470.137 115.324C471.153 116.251 472.294 117.269 473.494 118.359C475.184 118.923 476.912 119.505 478.678 120.102C509.622 146.525 538.227 175.824 564.022 207.373C565.712 208.3 567.339 209.182 568.863 210.029C569.9 211.375 570.83 212.591 571.644 213.637C572.272 215.514 572.876 217.242 573.364 218.799C579.7 227.313 585.947 235.415 591.974 243.675C592.381 244.259 592.907 244.744 592.752 244.557C594.87 246.244 596.548 247.157 597.855 248.739C599.329 250.523 600.607 252.251 602.053 252.581C604.181 252.952 603.908 249.208 607.431 251.719C607.851 253.405 608.283 255.106 608.798 257.149C610.005 258.911 611.226 260.661 612.433 262.424C613.625 264.198 614.727 266.046 615.887 267.872C618.178 271.521 620.497 275.173 622.812 278.851C625.098 282.553 627.514 286.172 629.726 289.936C631.908 293.724 634.075 297.525 636.257 301.313C636.551 301.82 636.597 302.63 636.594 303.14C636.589 304.04 635.852 303.753 634.557 302.548C634.082 302.094 633.574 301.812 631.905 300.577C633.36 304.361 635.152 307.769 637.022 310.968C638.892 314.167 640.848 317.199 642.373 320.343C646.321 323.52 650.12 326.577 654.302 329.947C656.253 333.757 658.655 337.872 660.576 342.19C661.004 343.192 661 344.939 660.662 345.436C659.621 346.925 656.993 345.708 657.421 349.76C660.808 356.909 664.207 364.073 667.603 371.264C670.729 378.581 673.867 385.912 677.016 393.257C678.267 394.499 679.589 395.827 680.837 397.096C683.163 403.113 685.442 409.072 687.649 414.824C687.642 416.839 687.623 418.719 687.633 420.211C688.514 422.485 689.379 424.771 690.248 427.031C691.031 429.337 691.813 431.643 692.599 433.923C694.167 438.509 695.711 443.066 697.244 447.609C700.505 456.63 702.991 465.831 705.762 474.893C706.689 476.015 707.536 476.767 708.258 477.913C709.932 480.573 710.489 483.332 710.055 485.917C708.731 486.309 707.42 486.715 706.108 487.121C705.87 489.763 706.382 491.591 707.465 491.664C708.484 491.718 709.335 490.603 710.771 493.217C711.855 497.428 713.043 502.038 714.365 507.142C713.934 510.427 713.448 514.096 712.97 517.686C713.667 520.886 714.349 523.977 714.99 526.958C715.781 528.458 716.449 528.753 717.147 528.903C719.739 529.472 719.739 529.593 720.615 533.614C721.455 537.47 722.307 541.34 722.99 544.431C724.405 546.627 725.329 548.259 726.123 549.612C727.104 554.998 728.058 560.261 728.992 565.468C729.472 568.073 729.94 570.663 730.408 573.254C730.891 575.832 731.359 578.422 731.679 581.014C731.778 581.707 731.684 582.439 731.684 583.164C731.362 584.375 731.051 585.6 730.648 587.167C731.043 589.939 731.482 593.038 731.992 596.586C732.343 597.312 732.858 598.751 733.482 599.567C734.694 601.155 734.922 603.484 735.286 606.039C734.881 607.754 734.517 609.579 733.987 611.445C734.811 613.015 735.652 614.668 736.497 616.294L737.071 620.855C737.954 622.618 738.807 624.285 739.437 625.531C740.006 630.87 740.517 635.628 740.981 639.844C740.455 642.167 739.883 644.043 739.478 645.636C739.969 650.822 739.905 655.668 740.728 659.684C741.641 661.906 742.363 663.657 742.819 664.781C743.272 667.747 743.239 670.727 743.408 673.469C743.493 676.23 743.753 678.75 744.922 680.859C745.402 679.566 745.834 678.338 746.284 677.191C746.711 676.137 747.225 676.608 747.775 678.452C747.891 681.673 748 684.947 748.104 688.153C747.473 689.957 746.854 691.776 746.203 693.645C746.318 696.866 746.434 700.087 746.531 702.983C745.859 705.04 745.282 706.848 744.657 708.478C744.651 712.065 744.642 715.316 744.633 718.567C744.627 722.638 744.58 726.719 744.643 730.782C744.681 733.849 744.215 737.332 745.582 739.591C746.308 738.023 747.037 736.428 747.745 734.899C748.461 734.889 749.123 734.874 749.716 734.868C750.507 736.611 751.248 738.201 751.932 739.694C753.024 739.687 754.072 739.353 754.683 742.116C754.447 748.386 754.21 754.925 753.975 761.799C753.335 763.32 752.574 765.087 751.806 766.907C751.739 768.73 751.685 770.566 751.603 772.4L751.222 777.92C750.949 781.607 750.688 785.308 750.427 789.009C752.381 790.105 752.643 791.631 751.71 796.905L751.659 796.874ZM747.956 880.32C749.507 878.481 751.699 875.968 752.971 874.336C753.788 868.529 754.269 865.275 754.718 862.073C755.373 861.144 756.075 859.547 756.589 859.534C757.901 859.491 759.304 859.106 760.059 860.079C760.917 863.05 761.577 865.36 762.214 867.521L761.489 872.623C761.915 874.618 762.367 876.495 762.648 878.103C761.995 881.693 761.419 884.952 760.748 888.702C759.431 889.524 758.102 890.332 756.758 891.152C756.473 891.774 756.031 892.357 755.919 893.007C755.003 897.879 757.506 884.023 756.734 888.315C755.413 891.247 754.466 890.795 753.379 890.628C752.234 884.53 747.727 896.896 746.304 889.406C746.514 888.24 747.081 885.06 747.929 880.317L747.956 880.32ZM832.462 725.238C832.457 726.864 832.459 728.557 832.466 730.318C833.136 732.185 833.793 734.038 834.513 736.057C834.523 737.55 834.483 739.253 834.405 741.061C833.309 743.782 832.406 747.432 830.92 748.563C829.98 746.097 829.105 743.77 828.296 741.582C828.523 736.118 828.379 730.96 828.437 725.805C830.319 721.587 830.328 721.628 832.492 725.214L832.462 725.238ZM836.86 943.566C835.539 947.465 833.81 949.209 832.224 951.609C831.45 948.981 832.706 945.426 833.293 942.18C833.781 939.478 834.524 937.266 835.713 935.775C836.089 938.345 836.478 940.929 836.86 943.566ZM774.826 891.059C774.124 892.777 773.525 893.32 773.216 892.584C773.022 892.138 772.79 891.072 772.864 890.889C773.566 889.171 774.13 888.706 774.478 889.338C774.6 889.939 774.9 890.877 774.826 891.059Z" fill="#1D1D1D"/>
</svg>
