<svg version="1.2" xmlns="http://www.w3.org/2000/svg" viewBox="0 0 387 868" width="387" height="868">
	<title>Vector-svg</title>
	<style>
		.s0 { fill: #1d1d1d } 
	</style>
	<path id="Layer" fill-rule="evenodd" class="s0" d="m264.7 662.9c0.9-5.3 0.7-6.8-1.3-7.9q0.4-5.5 0.8-11.1l0.4-5.5q0.1-2.8 0.2-5.5c0.8-1.8 1.5-3.6 2.2-5.1 0.2-6.9 0.4-13.4 0.7-19.7-0.6-2.7-1.7-2.4-2.8-2.4q-1-2.2-2.2-4.8-0.9 0-2 0c-0.7 1.5-1.4 3.1-2.1 4.7-1.4-2.3-0.9-5.8-1-8.8 0-4.1 0-8.2 0-12.2 0-3.3 0.1-6.5 0.1-10.1 0.6-1.7 1.2-3.5 1.8-5.5-0.1-2.9-0.2-6.1-0.3-9.4q1-2.7 1.9-5.4c-0.1-3.3-0.2-6.5-0.3-9.7-0.6-1.9-1.1-2.4-1.5-1.3-0.5 1.1-0.9 2.4-1.4 3.7-1.1-2.1-1.4-4.7-1.5-7.4-0.2-2.8-0.1-5.8-0.6-8.7-0.4-1.1-1.2-2.9-2.1-5.1-0.8-4-0.7-8.9-1.2-14.1 0.4-1.6 1-3.4 1.5-5.8q-0.7-6.3-1.6-14.3c-0.6-1.2-1.4-2.9-2.3-4.6l-0.6-4.6c-0.8-1.6-1.7-3.3-2.5-4.9 0.5-1.8 0.9-3.6 1.3-5.4-0.4-2.5-0.6-4.8-1.8-6.4-0.6-0.8-1.2-2.3-1.5-3-0.5-3.6-1-6.7-1.4-9.4 0.5-1.6 0.8-2.8 1.1-4 0-0.8 0.1-1.5 0-2.2-0.3-2.6-0.8-5.2-1.3-7.7q-0.7-3.9-1.4-7.8c-0.9-5.2-1.9-10.5-2.9-15.9-0.8-1.3-1.7-3-3.1-5.2-0.7-3.1-1.5-6.9-2.4-10.8-0.9-4-0.9-4.1-3.5-4.7-0.7-0.1-1.3-0.4-2.1-1.9q-1-4.5-2-9.3c0.4-3.6 0.9-7.3 1.4-10.6-1.4-5.1-2.5-9.7-3.6-13.9-1.5-2.6-2.3-1.5-3.3-1.5-1.1-0.1-1.6-1.9-1.4-4.6q2-0.6 4-1.2c0.4-2.6-0.2-5.3-1.8-8-0.8-1.1-1.6-1.9-2.5-3-2.8-9.1-5.3-18.3-8.6-27.3q-2.3-6.8-4.6-13.7-1.2-3.4-2.4-6.9-1.3-3.4-2.6-6.8c0-1.5 0-3.4 0-5.4-2.2-5.7-4.4-11.7-6.8-17.7-1.2-1.3-2.5-2.6-3.8-3.8q-4.7-11.1-9.4-22-5.1-10.8-10.2-21.5c-0.4-4.1 2.2-2.9 3.3-4.4 0.3-0.5 0.3-2.2-0.1-3.2-1.9-4.3-4.3-8.4-6.3-12.3-4.2-3.3-8-6.4-11.9-9.6-1.6-3.1-3.5-6.1-5.4-9.3-1.8-3.2-3.6-6.6-5.1-10.4 1.7 1.2 2.2 1.5 2.7 1.9 1.3 1.3 2 1.5 2 0.6 0-0.5 0-1.3-0.3-1.8q-3.3-5.7-6.6-11.4c-2.2-3.7-4.6-7.3-6.9-11q-3.5-5.6-6.9-11c-1.2-1.9-2.3-3.7-3.5-5.5q-1.8-2.6-3.6-5.3c-0.5-2-0.9-3.7-1.4-5.4-3.5-2.5-3.2 1.3-5.3 0.9-1.5-0.3-2.8-2.1-4.2-3.9-1.4-1.5-3-2.5-5.1-4.1 0.1 0.1-0.4-0.3-0.8-0.9-6.1-8.3-12.3-16.4-18.6-24.9-0.5-1.6-1.1-3.3-1.8-5.2q-1.2-1.5-2.7-3.6-2.3-1.2-4.9-2.6c-25.8-31.6-54.4-60.9-85.3-87.3q-2.7-0.9-5.2-1.7c-1.2-1.1-2.3-2.1-3.4-3.1-0.9-1.7-1.8-3.2-2.5-4.4-6.5-5.2-12.6-10-18.5-14.6-7-2-7.3-2-11-8q-6.5-4.7-13.1-9.5c-4.5-3.1-9.3-6.1-14.1-9.3-1.2-0.3-3-0.7-5.1-1.2-7-4.7-14.4-8.8-21.7-13.3l-5.5-3.3-2.7-1.6-2.9-1.6q-5.6-3.1-11.3-6.1c-1.9-0.3-3.7-0.5-5.6-0.7-4-2.3-8.2-4.3-12.4-6.3-1.2-1.4-2.4-2.8-3.4-4-11.4-5.8-22.9-10.7-34.1-15.8-1.8-0.2-2.8 0-2.9 0.7-0.1 1.2-1.6 1.7-3.8 0.9-4.3-1.5-8.5-3.5-12.8-5.3-0.5-0.3-0.8-0.9-1.2-1.3l4.9-0.4c-1.8-1.2-2.6-1.8-7.2-3.8-2.3-0.9-5.5-2.1-10.2-3.8-2.4-0.9-5.2-1.9-8.3-3q-2.4-0.9-5.2-1.9-2.7-0.9-5.9-1.9c-1.7 0.1-3.5 0.1-5.5 0.2-1.3-0.3-2.8-0.8-4.4-1.3-1.8 0.2-3.6 0.3-5.5 0.4-1.4-0.4-2.9-0.9-4.3-1.3q-2.8 0.2-5.3 0.5c-1.6-1.2-3.1-2.3-4.2-3.2-3.9-1.5-6.2-1.1-8.4-0.7-0.8-0.1-1.5-0.1-2.2-0.2-4.9-1.5-9.9-2.6-14.8-3.8-5-1.2-9.9-2.7-15-3.7-0.6-0.1-1.2-0.5-1.7-0.7-2.4-1.3-0.8-2.1-1.2-3.1-2.5-2.3-6.9-2.2-10.7-3.3-1.7 0.3-3.5 0.5-5.6 0.9-4.4-0.9-9-1.7-13.7-2.6l-5.5 1.1c-4.7-0.9-9.4-1.5-14-2.3-1.6-0.9-3.2-1.9-4.5-2.7-2.2-0.3-4.4-0.7-6.6-1q-3.3-0.4-6.6-0.8-6.6-0.8-13.1-1.7c-4.4-0.5-8.8-0.9-13.1-1.3-4.3-0.4-8.7-1-13-1.3l-3.8 1.3c-4.5 0.7-9.3-0.8-9-0.9-5.6 0.3-6.5 0.3-7 0.5-4.6 1.4-4.6 1.4-13.3 1-1.5 0.5-3.4 1-5.6 1.7-23.3-0.9-47.3-0.8-71.8 0.2-1.4-0.5-3.1-1-4.9-1.6l-4.9 2.1c-1.8-0.5-3.5-1.1-5-1.6-5.1 0.3-9.9 0.7-14.5 1l-3.5 1.8c-0.7 0.2-1.3 0.5-2 0.5-8.8 0.8-17.6 1.6-26.3 2.6-3.9 0.4-7.9 1.1-10.4 1.2-3.1-0.5-4.9-1.1-7-1-2.2 0-4.4 0.4-5.6-0.4l4-2.7c-2.6-0.7-4.9-1.2-5.1-2.7-0.1-0.8-2.6-1.2-4.6-2.1-0.5-4.3-1.1-8.9-1.6-13.6-1.8-0.6-3.4-1-5.2-1.6l-0.5-1.9 4.7-2.9q-0.4-3-0.7-5.9c-1.8-0.5-3.6-1-5.4-1.5-0.3-2.7-0.7-5.3-1-7.8-1.9-0.6-3.6-1.1-4.8-1.4-0.2-1.6-0.3-2.9-0.5-4.1q4.4-2.6-0.8-3.9c-0.4-3-0.7-6.4-1.4-9.6-0.1-0.5-2.3-1-3.3-0.8-3.9 0.7-6.2 0.3-8.8-0.3-2.5-0.4-6.8 1.2-9 0l-0.9-5.8c-1.9-0.5-3.7-0.9-5.6-1.3l-0.7-3.9-4.1-0.7c-0.5-0.5-1.3-1-1.4-1.6-0.7-3.6-1.2-7.3-1.9-11-0.1-0.6-0.6-1.1-0.9-1.7q-4.8-0.9-0.2-3.7c-1.7-0.4-3.4-0.8-5.3-1.2-0.3-1.8-0.7-3.8-1-5.8l-5.8-1.1q-1.6-8.9-3.2-17.9l7.5-4.5c41.3-8 82.7-13.3 124.3-16.2 20.8-1.4 41.6-2.2 62.5-2.4 5.2 0 10.4 0.1 15.6 0.1h7.8l7.9 0.2 15.6 0.5 15.7 0.8c1.6 0.6 3.5 1.4 5.6 2.2 1.7 0.1 3.5 0.2 5.3 0.4 2.1-0.5 4.1-1.1 6.2-1.6 13.4 0.8 26.8 2.3 40.1 3.7l19.9 2.5c3.4 0.4 6.7 0.9 10 1.4l9.9 1.6c26.5 4.2 52.9 9.5 78.8 16.2 1.6-0.2 3-0.3 4.5-0.5 6.1 0.5 12.2 2.9 18.3 4.5 6.3 1.8 12.6 3.5 18.8 5.5 6.1 1.9 12.2 3.9 17.8 5.7 2-0.1 3.4-0.1 4.9-0.2 0.7 0.2 1.6 0.2 2.3 0.4l17.1 6.2c5.7 2 11.5 4 17.1 6.4 0.7 0.3 1.4 0.8 2.1 1.2l3.4 3c1.9 0.2 3.9 0.4 6.3 0.6q4.4 1.8 8.8 3.6c2.9 1.2 5.9 2.5 8.8 3.9q8.9 3.9 18.1 8c1.3 1.3 2.8 2.8 4.3 4.2q3 0.4 6.3 0.9l12.5 6.2 6.3 3.1 6.1 3.3c8.1 4.4 16.2 8.7 24.1 13.2 2.4 0.6 4.5 1.1 6 1.4 3.8 2.3 6.9 4.2 9.8 5.9 1 1.3 1.9 2.4 2.8 3.5 0.8 0.6 2.8 2 5.9 3.9 3 2.1 7 4.7 11.8 7.8 4.8 3.1 10.3 6.7 16.2 10.6 5.9 4.1 12.2 8.5 18.7 13 1.4 0.4 2.7 0.8 4.5 1.2 2.1 1.5 4.2 3.1 6.4 4.7 2.2 1.6 4.3 3.3 6.5 5 2.2 0.8 4.2 1.6 6.3 2.4 1.1 1.6 2.2 3.3 3.4 5.1l7.6 6.1 3.8 3c1.3 1 2.5 2.1 3.7 3.1l14.8 12.8 7.3 6.3c2.5 2.2 4.8 4.5 7.2 6.7q7 6.6 14.1 13.3c1.9 0.9 3.8 1.8 5.7 2.6 0.7 1.4 1.2 2.7 1.8 4 13.7 14.9 35.7 37.2 60.7 67.8q1.8 1 3.6 2.1c1.9 1.9 3.8 3.9 5.4 6.1 1.6 2.2 3.2 4.4 4.9 6.5q4.1 5.6 8.3 11.1c3.3 4.4 6.4 8.9 9.9 12.9l3.7 2.6 14.2 20.6 13.4 21.1c2.2 3.5 4.5 7 6.5 10.6l6.3 10.8 6.2 10.9c2.1 3.6 4.2 7.1 6.1 10.9l11.6 22.1 2.9 5.5 2.6 5.6 5.4 11.3c7.4 14.9 13.6 30.4 20.2 45.7 24.9 61.7 43.7 126 55.3 191.9-0.2 1.5-0.4 3.6-0.7 5.9q1.3 2.6 2.9 5.3c7.9 47.3 12.5 95.3 13.7 143.3-0.6 2.1-1.2 4.1-1.8 5.9 0.2 2.9 0.2 5.7 0.1 8.5q0 4.1 0 7.9c0.7 2.2 1.3 4.1 1.9 5.9-2.7 7.9-2.7 8.2-0.1 15.7-0.1 0.7-0.2 1.5-0.3 2-0.4 1.4-1.1 2.6-1.6 4.1-0.2 5.3-0.4 10.8-0.6 16.6 0.5 1.8 1.1 3.8 1.7 5.8q-0.1 4.2-0.3 8.3-0.1 2.1-0.1 4.1-0.2 2.1-0.3 4.1c-0.9 2-1.7 4-2.6 6.1q-0.6 9.6-1.3 19.3c-0.3 3.2-0.4 6.4-0.8 9.5q-0.5 4.8-1 9.5c-3.5 7.7-3.5 8.2-1.9 15.5 0 0.8 0.2 1.6 0.1 2.4q-0.6 5-1.1 9.6-0.6 4.7-1.3 9.2c-0.8 6-1.6 11.7-2.4 17.3-1.5 11.1-3.5 21.5-5.3 32-1 5.2-1.9 10.5-2.9 15.8-1 5.3-2.2 10.6-3.4 16.2-2.4 11-4.7 22.8-8.1 35.8-0.9 1.5-2 3.4-3.3 5.4-2.5 8.7-2.4 7.9-5.4 8.2-1.7 2.3-3.3 4.6-4.8 6.7 0.5-1.8 3.3-13 3.7-14.6q-2.4 3.5-4.7 7c-1.6-2.1-3.5 11.7-4.6 9.3q-1-0.2-2-0.5c0-1.5-0.2-2.9 0.1-4.4 1.5-6.2 3.1-12.4 4.6-18.6 0.6-2.1 0.1-3.6-1.1-4.3l-0.9-0.5c-0.3-2.8 0.3-5.8 1.1-8.8 0.8-3 1.7-6.1 2.2-9.2 1-1.7 2-3.5 3.2-5.5 0.7-3.3 1.5-6.8 2.2-10.3 1.2-1.9 2.3-3.7 3.3-5.5 0.6-2.7 1.2-5.4 1.7-8q0.7-4.1 1.4-8c-0.1-2.8-1.2-2.7-2.1-3.3-0.4-0.3-0.9-2.2-0.7-3.3 1.4-8.1 1.9-11.1 2.4-14 0.2-1.4 0.5-2.9 0.9-4.9 0.3-2.1 0.8-4.7 1.3-8.7-0.7-3.1-1.2-5.8-1.8-8.4l-3.1-0.4c0.2-0.9 0.2-2 0.4-2.6 0.9-1.9 1.8-3.6 2.8-5.4-0.6-2.7-1.2-5.3-1.8-7.9-2.1 1.6-1.6 8.3-3.6 10.2l-2-0.2c-0.8-6.4-0.8-6.4 2.7-13 0.5-3.2 1-6.7 1.3-10.2 0.9-2 1.8-3.9 2.7-5.9q-0.6-2.7-1.3-5.7c0.3-3.4 0.7-7 1.1-10.5 0.8-1.9 1.7-3.7 2.5-5.5-0.4-2-0.9-4-1.3-5.8 0-2 0.1-3.7 0.2-5.4q-1.2-3.9-2.4-7.8c-0.6 0-1.3 0-1.9 0-0.6-1.9-1.2-3.6-1.8-5.4-0.3 0.7-0.8 1.3-0.9 1.9-0.5 5.2-0.9 10.5-1.5 15.8 0.6 2 0.9 4 1.4 6.2q-1.1 2.5-2.4 5.4c-0.6 5.2-1.2 10.4-1.7 15.6-0.6 5.3-1.1 10.5-1.9 15.7-0.9 2.6-1.9 3-2.9 3.1-0.6 0-1.3 1.5-2 2.3-3 21-2.9 22.1-6.8 43.2q-1.4 2.5-3 5.3c-0.9 5.2-1.8 10.3-2.8 15.5q-1.7 7.8-3.4 15.5c-2.5 5.6-3.9 0.4-6.2 2.9-1.7 2.3-1.7 6.2-2.6 9.3l-2.8-0.5c-1.2 1.2-2 2.9-2.5 5.6-0.6 3.2-0.5 4.3 0.6 4.8 1 0.5 2-0.4 3.1-2.5 0.6-2.4 1.1-4.9 1.6-7.4 0.9-0.4 1.5 0.2 1.3 2.2-0.4 4-1.4 8.3-0.2 11.1-1.3 5-2.5 10-3.9 15-0.3 1.1-1.2 2-1.8 3-0.1-0.7-0.3-1.3-0.3-2 0.2-2.3 1.4-4.9 1.1-7.1-0.4-2.1-1.6-1.5-2.5-1.8-0.6-0.1-1.3 0.1-2 0.1-2.3 3.1-2.4 7.8-3.8 11.6-0.6 1.9-1.4 2.6-1.8 2.1-0.2-0.3-0.3-1.2-0.2-1.9 0.3-1.7 0.8-3.4 1.3-5.3-0.6-4.3-1.3-8.8-1.9-13.5-2.4-1.1-2.4-1-4.4 5q-0.4 1.1-0.8 2.2c-0.7 1.1-1.5 2.2-2.7 3.8-1.3 5 2-8.5 0.6-3.3-1 1.5-0.9 2.1-0.9 2.2 0 0-0.2-0.2-0.5-0.4-0.3-0.2-5.1 16.6-4.8 15.2 1.5-6.6 3.3-13.1 4.7-18.7-0.3-4.6-2.3-2.7-3.3-3.6 0.2-0.8 0.6-2 0.6-2.5-0.6-4.5-1.2-9-1.8-13.4-3 5-3.1 5.1-2.2 12.2-0.8 2.9-1.6 6.2-2.6 10.2-0.7 1.1-1.8 2.8-3.2 5 0.5-2.1 3.2-12.3 2.4-9.6-0.6 1.8-1.4 2.6-1.8 2-0.3-0.3-0.4-1.2-0.3-1.8 0.3-1.5-3.2 12.6-3.5 14-0.5-6.9-5-1.5-6.4-5.4-0.1-0.6-0.3-1.3-0.2-1.9 1.7-6.6 3.3-13.2 4.9-19.7 1.7-2.2 0.8-4 1.3-1.7 1.2 5.3 1.2 5.3 0.4 13.3-0.1 0.7 0.1 1.3 0.2 1.9 2.5-2.6 2.6-7.3 4.4-12.8 0.5-1.6 2.6-2.1 3.4-5.8 0.7-4.1 2.4-5.4 3.7-7.8q-0.4-2.8-0.8-5.7c2.3-10.8 4.9-21.7 6.7-32.6 0.3-2 0.5-3.3 0-4.5-0.4-1.1-1.8-1.3-2.7-0.1-0.4 0.5-0.8 1.1-0.9 1.8-0.5 1.6-0.7 3.3-1 4.7-1 1.9-2 3.6-3.1 5.5-0.5 3.3-1.3 6.5-1.9 9.3-1.4 3-2.3 1.9-3.3 2-0.6 1.1-1.5 2.1-1.9 3.4-1.6 6.5-2.5 13.2-4.4 19.4-0.8 1.2-1.5 2.3-2.3 3.3-2.6 6.9-3.3 14.6-6.1 21.4-0.2 0.5-0.8 1.1-1 0.9-0.2-0.3-0.4-1.2-0.2-1.8q2-8.6 4.1-17.2l1.1-4.4q0.4-2.2 0.9-4.4 0.9-4.4 1.9-8.9c-0.3-1.5-0.5-3.5-0.8-5.5l0.9-4.7c-1-4.3-1-4.3-3.9-1-0.4 1.6-0.7 3.3-1.1 4.9-0.2 0.7-0.7 1.3-1.1 1.6-0.5 0.4-0.9-0.5-0.7-2.4 0.1-1.5 0.5-3.2 0.8-4.8-0.4-2.5-0.8-5-1.3-7.5l-2-0.4c-0.3 0.5-0.7 0.8-1 1.5-1.3 2.8-1.5 6.2-2.4 9.3-0.4 1.2-1.2 2.3-1.8 3.4 0-1.4-0.3-2.8 0-4.1 1-5.7 2.5-11.4 3.6-17.5q1.3-2.2 2.8-5c0.3-1.3 0.6-2.9 1-4.7q-0.5-2.6-1-5.6c-0.4 2.3-1.3 7.3-0.8 4-0.3-1.9-0.7-3.8-1-5.7l2.8-15.8 2.2-16 2.3-16c0.7-5.3 1.2-10.6 1.8-16-0.7-2.4-1.4-4.8-2.2-7.3-0.8 1.4-1.7 2.9-2.6 4.4l-2.1-0.1c-0.6-2.2-1.3-4.7-2.1-7.6 0.3-2.5 0.6-5.7 1-8.9-0.6-1.9-1.1-3.8-1.7-5.9 0.2-2.8 0.4-6 0.7-9.2-0.6-1.9-1.2-3.7-1.7-5.5 0.2-3.2 0.4-6.4 0.7-9.8 1.1-2.1 2.2-4.4 3.2-6.7 0.4 0.9 1.1 1.8 1.1 2.7-0.5 8.1-1.2 16.2-1.7 23.8 0.4 1.1 0.5 2 0.8 2.2 0.6 0.3 1.3 0.3 1.9 0.4 1.7-1.5 1.4-5.4 2.1-8q0.8-2.6 1.9-1.7c-0.2 2.3-0.4 4.6-0.5 6.9 0 0.6 0.2 1.3 0.4 1.8 0.1 0.3 0.4 0.8 0.6 0.7 0.3-0.3 0.6-0.9 0.8-1.5zm-8 94.7q0 0.1 0 0.1c0.2-1.2 0.3-1.6 0-0.1zm11.2 90.3q0 0.2 0 0 0 0 0 0zm3.2-4.5q0 0 0-0.1c-0.1 0.5-0.1 0.5 0 0.1zm-10.2-97.1c-0.9 4.7-1.4 7.9-1.6 9.1 1.4 7.5 5.9-4.9 7 1.2 1.1 0.2 2.1 0.6 3.4-2.3-0.4 2.3-1.5 8.1-0.8 4.7 0.1-0.7 0.5-1.3 0.8-1.9q2-1.2 4-2.4c0.7-3.8 1.2-7 1.9-10.6-0.3-1.6-0.7-3.5-1.2-5.5l0.8-5.1c-0.7-2.2-1.3-4.5-2.2-7.5-0.7-0.9-2.2-0.5-3.5-0.5-0.5 0-1.2 1.6-1.8 2.5-0.5 3.2-1 6.5-1.8 12.3-1.3 1.6-3.4 4.2-5 6zm8.8 8q0 0 0 0c0.2-1 0.2-1.3 0 0zm75.8-163.1c-2.2-3.6-2.2-3.6-4.1 0.6 0 5.1 0.1 10.3-0.1 15.8q1.2 3.2 2.6 6.9c1.5-1.1 2.4-4.7 3.5-7.5 0.1-1.8 0.1-3.5 0.1-5-0.7-2-1.4-3.8-2.1-5.7q0-2.7 0-5.1zm3.3 210.6c-1.2 1.5-2 3.7-2.5 6.4-0.5 3.2-1.8 6.8-1 9.4 1.6-2.4 3.3-4.1 4.6-8q-0.6-4-1.1-7.8zm-61.3-46.5c-0.3-0.6-0.9-0.1-1.6 1.6-0.1 0.2 0.2 1.2 0.4 1.7 0.3 0.7 0.9 0.2 1.6-1.5 0-0.2-0.3-1.2-0.4-1.8z"/>
</svg>